<?xml version="1.0" encoding="UTF-8" standalone="no"?>
<!-- Created with Inkscape (http://www.inkscape.org/) -->

<svg
   width="210mm"
   height="297mm"
   viewBox="0 0 210 297"
   version="1.1"
   id="svg5"
   inkscape:version="1.1 (c68e22c387, 2021-05-23)"
   sodipodi:docname="Rozee logo basic.svg"
   xmlns:inkscape="http://www.inkscape.org/namespaces/inkscape"
   xmlns:sodipodi="http://sodipodi.sourceforge.net/DTD/sodipodi-0.dtd"
   xmlns="http://www.w3.org/2000/svg"
   xmlns:svg="http://www.w3.org/2000/svg">
  <sodipodi:namedview
     id="namedview7"
     pagecolor="#ffffff"
     bordercolor="#666666"
     borderopacity="1.0"
     inkscape:pageshadow="2"
     inkscape:pageopacity="0.0"
     inkscape:pagecheckerboard="0"
     inkscape:document-units="mm"
     showgrid="false"
     showborder="false"
     showguides="true"
     inkscape:guide-bbox="true"
     inkscape:snap-bbox="true"
     inkscape:snap-global="false"
     inkscape:zoom="0.70710678"
     inkscape:cx="1710.4913"
     inkscape:cy="-125.1579"
     inkscape:window-width="2560"
     inkscape:window-height="1369"
     inkscape:window-x="-8"
     inkscape:window-y="-8"
     inkscape:window-maximized="1"
     inkscape:current-layer="g20471">
    <sodipodi:guide
       position="246.21945,167.58295"
       orientation="0,-1"
       id="guide2189" />
  </sodipodi:namedview>
  <defs
     id="defs2">
    <inkscape:path-effect
       effect="bspline"
       id="path-effect3237"
       is_visible="true"
       lpeversion="1"
       weight="33.333333"
       steps="2"
       helper_size="0"
       apply_no_weight="true"
       apply_with_weight="true"
       only_selected="false" />
  </defs>
  <g
     inkscape:label="Layer 1"
     inkscape:groupmode="layer"
     id="layer1">
    <path
       id="path8343-0"
       style="color:#000000;fill:#666666;fill-opacity:0.433007;stroke-width:5.76501;stroke-linecap:round;-inkscape-stroke:none"
       d="m -23.830706,-335.82396 c -38.747144,1.5e-4 -70.157868,31.24336 -70.15799,69.78386 1.22e-4,38.54049 31.410846,69.78371 70.15799,69.78385 25.8458267,-0.0198 49.587557,-14.17259 61.791058,-36.83444 6.029595,10.26329 15.166419,16.24442 24.831043,16.25482 15.809949,-5.3e-4 29.219495,-15.78065 31.478182,-37.04322 h 61.317703 v -10.02678 c 4.23885,4.92642 9.81083,9.71264 16.04295,13.78056 17.82662,11.62831 36.48689,14.60078 41.68014,6.63938 l -32.27916,-21.05762 32.28278,21.05194 c 5.18612,-7.96579 -5.06076,-23.84729 -22.88801,-35.4738 -17.82743,-11.62661 -36.4855,-14.59605 -41.67549,-6.63267 -1.58974,2.44999 -1.75922,5.7682 -0.49248,9.6423 H 92.362717 c -4.800864,-16.48501 -15.862654,-26.61929 -28.909864,-26.62059 -7.949115,0.01 -16.268882,3.36918 -22.127847,10.66911 -10.640669,-26.51885 -36.4496985,-43.91483 -65.155712,-43.9167 z"
       sodipodi:nodetypes="ccccccccccccscccccc" />
    <path
       id="path854"
       style="fill:#000000;stroke-width:0.727272"
       d="m -7.8515625,148.58203 c -13.5426965,0.0792 -28.6419485,0.82289 -37.6894535,2.04297 -14.21896,1.91743 -32.610343,5.57636 -40.736328,8.10547 -1.2,0.37349 -6.110156,1.86213 -10.910156,3.30859 -19.68333,5.93159 -32.47599,11.02377 -52.07031,20.72461 -55.1658,27.31174 -100.54556,69.53856 -127.32227,118.47656 -2.95464,5.4 -5.90719,10.96327 -6.56054,12.36329 -7.22725,15.48627 -12.76513,30.6434 -16.20899,44.36328 -1.05425,4.2 -2.20867,8.78162 -2.56641,10.18164 -2.92784,11.45757 -4.66556,32.36892 -4.13281,49.75195 0.75396,24.60076 4.80596,42.59228 13.97461,62.06641 4.15437,8.8238 5.9763,11.12188 5.19336,6.54687 -0.22247,-1.3 -0.81215,-8.81371 -1.31055,-16.69531 -0.72957,-11.53977 -0.72577,-16.2836 0.0215,-24.36328 2.37979,-25.73118 7.22276,-46.56539 16.2793,-70.0332 2.74193,-7.10503 13.78729,-30.5707 16.48046,-35.01172 20.37789,-33.60299 38.76333,-54.88904 66.58594,-77.0918 16.48819,-13.15775 45.13793,-29.80897 65.45508,-38.04297 3.6,-1.45897 7.20002,-2.96435 8,-3.3457 7.35882,-3.50805 35.10199,-12.13686 50.365234,-15.66407 40.369966,-9.32912 82.318696,-9.96453 113.960937,-1.72656 27.061985,7.0455 46.620004,16.55137 65.851559,32.00586 12.3583,9.93116 22.42213,21.41235 36.00586,41.07617 10.96698,15.87636 18.81172,23.61843 29.08399,28.70703 8.02167,3.97376 28.05115,11.84429 59.34375,1.7793 44.55883,-14.33196 61.73054,-18.4259 91.58041,-12.06562 21.20818,4.51895 32.12822,14.44515 37.44302,25.675 3.41428,7.21417 4.80304,13.26225 5.28516,23.01562 0.432,8.73884 0.32491,10.92784 -1.75976,20.62891 l -1.23438,5.74219 c 0,0 -4.03839,3.38482 -4.89453,14.63281 -0.76384,10.03502 -2.49856,21.54288 -5.71875,37.94531 -6.46568,32.93341 -7.4847,40.17797 -7.17969,51.04102 0.40437,14.39818 1.84472,15.01399 22.83985,9.77734 17.02876,-4.24736 23.54143,-6.02712 43.9375,-9.50977 16.23681,-2.77247 25.45507,-6.56073 25.45507,-10.46093 0,-2.21787 -3.90027,-5.31116 -7.34765,-5.82813 -3.53722,-0.53045 -22.37587,1.09182 -37.74414,3.25 -5.4,0.75833 -11.78164,1.48157 -14.18164,1.60742 l -4.36328,0.22852 -0.23633,-2.47852 c -0.25701,-2.69438 0.83014,-13.85955 2.21484,-22.74023 l 0.87109,-5.58398 4.39258,-0.76563 c 2.41629,-0.421 8.3211,-1.27765 13.1211,-1.9043 20.67666,-2.69926 25.972,-3.80915 30,-6.28515 1.76965,-1.08783 2.36328,-1.97101 2.36328,-3.51563 0,-5.52423 -2.06974,-6.03845 -23.27149,-5.78711 -9,0.10847 -17.91835,0.14364 -19.81836,0.082 l -3.45507,-0.11328 v -13.01172 -13.01367 l 12.9082,-0.49609 c 6.20715,-0.23919 14.31617,-0.79565 19.9375,-1.3125 l 42.79101,-0.34571 0.004,3.27149 c 0.006,5.28234 -0.75822,10.69267 -5.26172,37.27148 -3.10703,18.33729 -3.64933,22.98678 -3.73437,32 -0.11588,12.26884 0.49855,14.52908 4.46679,16.41211 3.12662,1.48366 11.88741,1.15142 20.30078,-0.76953 4.35047,-0.9933 8.87912,-2.78775 18.04493,-5.92578 30.21581,-10.34468 51.28807,-15.80851 83.26953,-21.5918 36.67532,-6.63212 36.6285,-6.61169 15.27148,-6.90234 -34.21164,-0.46526 -63.48962,3.18694 -101.76758,12.69336 -5.37286,1.33436 -9.95449,2.23836 -10.18164,2.00781 -1.15339,-1.16988 1.3117,-26.04132 2.70313,-27.27148 0.28539,-0.25232 4.11952,-0.9939 8.51953,-1.64844 7.57863,-1.12743 11.30931,-1.64362 24.56445,-3.39648 6.25992,-0.8278 8.97945,-1.67844 10.88867,-3.40625 2.91107,-2.63449 0.59676,-6.79065 -4.42578,-7.94922 -1.46536,-0.33793 -10.51718,-0.61524 -20.11718,-0.61524 h -17.45508 l -0.19922,-12.46093 c -0.12109,-7.59514 -0.0733,-10.61695 0.30078,-11.92188 l 119.75,-0.96875 c 0.0825,4e-5 0.16049,-0.007 0.24219,-0.008 22.83522,-1.20963 31.12271,-5.63058 37.86329,-10.97029 3.99185,-2.73014 7.33387,-6.78352 10.28125,-9.98633 2.84609,-3.09275 7.24905,-4.88648 12.7246,-3.97698 4.99638,0.8299 19.73378,4.07074 20.17969,4.4375 0.1539,0.12652 -0.26398,1.97166 -0.92774,4.10157 -2.40272,7.71048 -1.45214,20.52115 1.8418,24.83007 2.2944,3.00159 5.39336,-0.0456 8.42383,-8.28515 0.33365,-0.90724 0.8963,-2.39118 1.25195,-3.29883 0.35562,-0.90769 0.80964,-4.21215 1.00391,-7.34375 0.24661,-3.93197 0.67652,-5.82395 1.39062,-6.11523 1.97938,-0.80755 25.89945,7.57185 25.92969,9.08398 0.0109,0.52003 -1.10446,3.52302 -2.48047,6.67383 -2.91591,6.67661 -2.81477,9.79647 0.51367,15.84961 2.30748,4.19641 3.65976,5.35471 6.23438,5.33203 2.6708,-0.0228 7.11219,-5.52219 7.04492,-8.72266 -0.0156,-0.73863 0.19259,-1.5715 0.46094,-1.85156 0.76051,-0.79302 2.26486,-5.80879 2.24218,-7.47266 -0.0113,-0.82352 0.42522,-2.13323 0.96875,-2.91015 0.94927,-1.35704 1.34849,-1.23816 10.14258,3.02148 5.03501,2.43889 9.85943,4.94904 10.72071,5.57617 1.51664,1.10431 1.53224,1.24332 0.47265,4.43555 -2.07821,6.26098 -3.65749,14.06185 -3.54297,17.49219 0.0541,1.61268 1.10696,2.88708 2.38867,2.88867 1.47262,0.002 7.33804,-6.32665 10.4961,-11.32617 2.34406,-3.71097 3.9385,-5.56269 4.51367,-5.24219 4.86013,2.70875 16.56183,11.99295 23.49609,18.64258 18.44905,17.69182 26.07655,35.02694 21.34961,48.51562 -3.36053,9.58972 -13.48468,14.60718 -30.22265,14.98438 -7.27246,0.16331 -8.15532,0.31159 -6.88672,1.15234 1.20314,0.79733 9.41411,2.63546 17.88672,4.00391 2.57631,0.41609 13.48134,-0.51816 17.78906,-1.52344 11.19723,-2.61294 19.17238,-11.00265 21.3125,-22.41992 1.64965,-8.80105 -1.31771,-23.98444 -6.66797,-34.12109 -8.30525,-15.73527 -21.69167,-30.00744 -41.30273,-44.03516 -4.36642,-3.12321 -7.94765,-6.11937 -7.95899,-6.65625 -0.0362,-1.72433 3.58549,-9.09281 4.47852,-9.11133 2.04827,-0.0429 8.10768,-3.9799 9.52734,-6.18945 3.84484,-5.98415 3.32495,-14.52211 -1.12695,-18.50977 -3.43733,-3.07886 -6.45624,-3.97475 -11.50391,-3.41015 -10.42499,1.16603 -15.97527,8.9015 -13.01953,18.14062 1.11685,3.49592 1.1163,4.12074 0.01,8.15625 -0.65908,2.40376 -1.38626,4.2902 -1.61719,4.19141 -7.93727,-3.39491 -26.43045,-12.99763 -26.45313,-13.73438 -0.0156,-0.55338 0.31594,-2.24941 0.73633,-3.76758 0.66456,-2.40005 1.17406,-2.88342 3.91406,-3.71289 2.10433,-0.63701 4.08045,-2.00479 5.94727,-4.11718 9.16804,-10.37431 1.96122,-25.01872 -11.39453,-23.15235 -5.89493,0.82381 -9.52773,3.4791 -12.18164,8.90235 -2.40832,4.92164 -1.33999,10.80008 2.82422,15.5332 2.22614,2.5304 2.44444,3.6944 1.0625,5.66992 -0.91049,1.30165 -1.62365,1.12907 -14.80664,-3.60742 -7.6173,-2.73676 -14.08675,-5.19612 -14.37891,-5.46484 -0.29178,-0.2686 -0.33942,-2.50524 -0.10547,-4.97071 0.4145,-4.35825 0.52486,-4.55368 3.96094,-6.98437 2.07749,-1.46962 4.12975,-3.71121 4.97851,-5.43946 1.87151,-3.80674 1.75308,-9.41812 -0.26757,-12.77148 -3.29915,-5.47496 -12.51795,-7.17886 -19.66602,-3.63672 -4.17974,2.0712 -5.60559,3.56211 -7.14258,7.46875 -1.81243,4.60696 -0.67556,9.21871 3.67774,14.9082 0.63329,0.82721 0.56754,1.7817 -0.26758,3.9043 -1.28175,3.2579 -0.48583,3.27845 -13.18164,-0.34765 -4.42745,-1.26453 -9.89522,-2.62559 -12.15039,-3.02344 l -4.09961,-0.72266 -0.51758,-3.69922 c -0.63481,-4.54271 -0.31617,-5.17536 3.73828,-7.42578 1.77279,-0.98399 4.17583,-3.20312 5.33985,-4.93164 1.76692,-2.6239 2.10142,-3.845 2.02734,-7.39062 -0.11656,-5.56304 -1.83481,-7.85972 -7.11719,-9.51563 -7.07947,-2.21928 -16.41158,0.75591 -20.02148,6.38281 -1.98187,3.08911 -1.97327,5.46456 0.0391,10.51758 1.29706,3.25636 1.47971,4.70419 1.07617,8.55274 l -0.48633,4.63281 -5.18554,-0.125 c -6.53209,-0.157 -11.72538,1.37494 -14.42774,3.46289 -1.7822,1.37699 -4.4707,5.68481 -5.38867,12.57422 -0.0976,0.7323 -0.13861,1.38378 -0.16211,2.00586 -1.1339,10.64478 -7.43432,15.42207 -16.62891,17.64453 -1.15529,0.19895 -204.8324,-0.004 -204.8324,-0.004 -0.79265,-0.67298 -1.35978,-1.36442 -1.48828,-1.93359 -0.2022,-0.89518 -0.46531,-12.42695 -0.58398,-25.62695 -0.25236,-28.08303 -12.46056,-43.5209 -27.61328,-55.08594 -15.64256,-11.9389 -34.7408,-14.88499 -60.00977,-14.89664 -31.80286,-0.0147 -43.94939,5.46257 -77.41992,14.4982 -27.1858,7.33901 -38.77783,-4.35306 -44.21094,-8.53125 -6.73274,-5.17765 -11.86795,-12.28907 -21.34961,-29.57031 -1.46638,-2.67262 -5.3274,-8.89099 -8.58203,-13.81836 C 140.9415,201.28034 112.08273,178.39547 75.167969,163.75781 55.703931,156.03987 34.540094,151.06756 13.199219,149.19727 7.8389038,148.72749 0.27405545,148.53452 -7.8515625,148.58203 Z m 35.5175785,96.06055 c -23.0300431,0.0381 -44.649494,2.23112 -72.126954,7.20508 -11.439307,2.07072 -40.791462,8.96518 -47.419921,11.13867 -1.718514,0.56353 -7.216822,2.34591 -12.216801,3.96094 -24.89178,8.04026 -35.50227,12.37446 -58.9082,24.0625 -11.28401,5.63482 -16.07461,8.39027 -27.63672,15.89453 -33.39923,21.67736 -55.01986,49.95105 -58.34765,76.29882 -1.48868,11.78673 1.22129,21.67641 7.72461,28.17969 3.53245,3.53246 5.97894,4.41062 5.16796,1.85547 -1.65097,-5.20312 -1.65317,-17.33742 -0.004,-24.36133 4.46354,-19.00895 21.20528,-41.00821 43.93554,-57.73047 12.44244,-9.15367 34.24848,-21.35209 50.06641,-28.00976 2.48315,-1.04515 6.24007,-2.67425 8.34961,-3.6211 3.4128,-1.5318 15.47843,-6.07068 23.47266,-8.83007 19.043032,-6.57321 49.382604,-13.92732 71.634762,-17.36328 21.722193,-3.35415 26.824467,-3.72045 51.273437,-3.66602 23.310993,0.0518 24.255651,0.11086 32.878907,2.02148 16.312856,3.61429 22.227084,6.09843 28.789062,12.09571 5.159509,4.71549 6.729437,8.52236 6.605469,16.01172 -0.137726,8.32905 -3.976013,16.69005 -12.068359,26.28711 -2.688152,3.18799 -14.916107,13.79568 -20.931641,18.1582 -12.565265,9.1124 -45.0060646,26.39784 -65.091797,34.68359 -27.056656,11.1614 -74.513595,28.05477 -75.642578,26.92578 -0.211276,-0.21131 1.126017,-4.27808 2.972656,-9.03711 2.878337,-7.41792 7.875172,-21.65069 17.84961,-50.83593 2.719029,-7.95595 9.793158,-25.76589 12.998046,-32.72657 6.716599,-14.58765 7.132727,-20.58784 1.677735,-24.16211 -4.102224,-2.68788 -19.934564,-0.81679 -38.400391,4.53907 -6.885808,1.99714 -22.698008,7.37835 -27.636718,9.40429 -12.73013,5.22218 -18.38414,11.47134 -14.18164,15.67383 1.15514,1.15518 2.42324,1.45313 6.16406,1.45313 4.31762,0 4.81803,0.16485 6,1.96875 2.01725,3.07873 1.48535,6.99917 -2.49805,18.39648 -2.02711,5.80003 -5.39214,15.94492 -7.47851,22.54492 -2.08638,6.6 -4.70174,14.78161 -5.8125,18.18164 -14.71926,45.0553 -15.15573,46.32277 -26.21289,76.36329 -6.1107,16.6018 -17.09167,44.31187 -20.20313,50.98046 -1.19471,2.56056 -3.69473,8.0492 -5.55664,12.19727 -3.22688,7.18923 -8.06121,16.86362 -12.76562,25.54883 -1.19165,2.20002 -2.51542,5.14686 -2.94141,6.54687 -4.00554,13.16353 -4.1957,19.21129 -0.82617,26.27149 5.87728,12.31476 21.04109,16.64517 54.3125,15.50976 27.36703,-0.93388 39.70501,-5.96928 45.40234,-18.52929 2.47242,-5.45057 2.26322,-5.79883 -3.5,-5.79883 -10.05845,0 -16.76587,-4.04011 -19.19531,-11.5625 -0.88025,-2.72515 -1.24987,-6.2826 -1.24609,-11.97461 0.01,-11.30857 2.41159,-22.53295 9.82226,-45.91602 1.90156,-6 4.40475,-14.01834 5.56446,-17.81836 1.15974,-3.79997 4.30735,-13.4551 6.99414,-21.45507 l 4.88476,-14.54493 4,-1.93945 c 2.19999,-1.06704 7.436721,-3.32071 11.636721,-5.00781 4.2,-1.68707 9.761592,-4.03852 12.359375,-5.22461 2.597782,-1.18613 8.005281,-3.55857 12.015625,-5.27149 4.010343,-1.71292 10.1813,-4.46056 13.71289,-6.10742 7.244296,-3.37821 8.93914,-3.60746 11.548828,-1.55469 3.701482,2.9116 4.415994,6.35901 4.298829,20.74219 -0.05855,7.2 -0.448907,16.03477 -0.867188,19.63477 -1.541972,13.27075 -2.980281,24.85301 -3.65625,29.45508 -3.356674,22.85378 -6.256636,41.74864 -7.701172,50.18164 -4.638841,27.0808 -5.576042,34.59336 -5.222656,41.85742 0.24102,4.95621 0.757965,7.45911 2.164062,10.50586 4.382076,9.49542 15.983175,16.11968 32.5625,18.5918 h 0.002 c 10.6749711,1.5911 24.4080373,-0.2736 35.25,-4.78711 16.124409,-6.71263 29.286365,-20.99272 30.751953,-33.36719 l 0.43164,-3.65625 -3.916015,1.49414 c -5.8625,2.23472 -16.811133,2.69027 -21.841797,0.91015 -7.174451,-2.53878 -11.639852,-8.96689 -14.0820315,-20.27539 -3.0969826,-14.34066 -1.99965,-51.60822 2.71875,-92.36328 0.5094045,-4.39997 0.9257815,-13.89179 0.9257815,-21.09179 0,-12.07677 -0.134096,-13.42057 -1.7207034,-17.35547 -2.9664,-7.35682 -10.7420247,-13.21088 -18.7480466,-14.11328 -1.742589,-0.19643 -3.167969,-0.58064 -3.167969,-0.85352 0,-0.50555 1.525777,-1.21889 15.6367188,-7.31641 7.6066772,-3.28694 11.8873192,-5.28167 31.9335932,-14.87695 15.319445,-7.33275 39.635309,-21.45069 50.97461,-29.59765 3.200012,-2.29913 7.775679,-5.58772 10.167969,-7.30665 5.505343,-3.95576 17.502113,-15.43491 21.333993,-20.41406 9.34265,-12.1398 13.87671,-23.92606 13.92773,-36.20703 0.0813,-19.51884 -13.26122,-32.35803 -42.169926,-40.58398 -15.57687,-4.43237 -26.624223,-5.82138 -50.972657,-6.4043 -3.368778,-0.0807 -6.688509,-0.11872 -9.978515,-0.11328 z m 309.951174,95.96289 c -2.11848,0.0172 -4.46076,0.0728 -7.04883,0.16211 -39.53038,1.36422 -84.40257,7.36724 -121.57422,16.26172 -19.88054,4.75706 -20,4.89192 -20,22.5664 0,16.26932 0.83608,17.11586 11.61133,11.79492 14.38995,-7.10592 34.81167,-12.50814 63.02539,-16.67187 5.54982,-0.81902 10.74491,-1.64955 11.54492,-1.8457 2.83075,-0.69396 20.31471,-2.46849 20.6836,-2.09961 0.50887,0.50887 -10.67177,11.27735 -26.625,25.64258 -7.268,6.54455 -15.50668,14.56185 -18.3086,17.8164 -5.72152,6.64581 -20.48349,21.15679 -28.14648,27.66797 -13.97322,11.87305 -39.92951,37.12935 -52.76172,51.33984 -13.33913,14.77183 -27.49901,34.22307 -31.06836,42.67969 -1.75792,4.16484 -2.06061,8.19298 -0.71875,9.53711 0.50472,0.50461 2.92421,0.87305 5.73633,0.87305 3.9962,0 6.72283,-0.66005 15.30859,-3.70703 5.74571,-2.03906 11.8079,0.59828 17.29849,2.63387 23.72711,8.79661 37.1887,10.21996 57.19366,9.20719 12.25251,-0.62025 34.22396,-4.74697 54.3202,-13.16499 9.17993,-3.84534 20.33736,-10.15749 24.15249,-11.98467 3.78875,-1.81451 9.80046,-7.9659 11.8086,-12.08203 5.09004,-10.43289 4.90883,-23.91957 0.82001,-31.52895 0,0 -1.07112,-1.89332 -1.82996,-3.23461 -0.12246,-0.21646 -0.2217,-0.51759 -0.42311,-0.54908 -0.32506,-0.0508 -1.07807,0.57996 -1.66007,0.89338 l -3.66273,1.5345 c -9.21221,3.85945 -29.67193,13.88263 -40.09375,17.77734 -17.81748,6.65852 -31.48029,4.82569 -45.6582,2.35352 -4.97942,-0.86825 -14.1836,-4.77375 -14.1836,-5.06255 0,-1.2838 35.93643,-36.93415 49.0918,-48.70118 26.7733,-23.94799 59.30003,-57.10246 73.98047,-75.4082 11.13819,-13.88882 15.79581,-21.93349 15.82226,-27.33984 0.0295,-5.695 -3.80539,-7.48211 -18.63476,-7.36133 z M 123.72461,371.9082 c -1.07226,-0.008 -2.14402,0.008 -3.21484,0.043 -32.756214,1.49701 -63.160418,21.41434 -80.148442,49.07031 -9.954261,16.00487 -16.121236,34.62915 -15.953125,53.58594 -0.307525,10.81024 0.884816,21.87692 5.589844,31.74024 4.949995,11.57522 14.423652,21.53032 26.652344,25.27148 16.869785,5.61078 35.302485,2.46774 51.511719,-3.83398 14.17929,-5.5527 26.90013,-14.43942 37.37109,-25.46094 8.30287,-8.28616 14.96582,-18.07628 20.0625,-28.61719 3.64873,-6.60843 6.92524,-14.20186 8.96696,-21.84315 2.39663,-15.16199 2.04865,-18.23679 0.75765,-40.51622 -0.39949,-5.09345 -3.0015,-9.64813 -5.21093,-14.14649 -7.43603,-13.45942 -21.59986,-22.58855 -36.77344,-24.55078 -3.17789,-0.49267 -6.39456,-0.71906 -9.61133,-0.74219 z m -7.18164,41.79688 c 6.86627,-0.0706 12.17475,6.25683 13.03906,12.74219 1.14312,8.27361 0.0229,16.76134 -1.91211,24.83789 -3.69019,13.13004 -10.41762,25.75641 -20.57422,35.01172 -6.82563,6.08005 -16.293397,10.94912 -25.597653,8.24804 -7.685072,-2.70164 -11.165138,-11.18155 -11.673828,-18.75976 -0.902287,-13.57943 4.083654,-27.42934 11.86914,-38.65235 5.534325,-7.15525 13.351754,-12.06667 20.714841,-17.13086 4.15232,-2.60235 8.55512,-5.50115 13.46485,-6.26953 0.22464,-0.0158 0.44843,-0.0251 0.66992,-0.0273 z"
       transform="scale(0.26458333)"
       sodipodi:nodetypes="scscsscscssscsssssccsscsssssccssssssssccsccccsscccccccccsssssscscssssssccccccssssssscscsscscsssssccscsscssssssccssscsccsscsssssccscssscsscccsscssccccsscccscsssssscsssssssssscsssscsccscssssssssscssssscsssscssssccsscccssssscscsssccscccsssssssssssscsssscsssscsssssscsssssscccsscssscscsscccccccccsccsccccccccccccsc" />
    <ellipse
       style="fill:#666666;fill-opacity:0.433007;stroke:none;stroke-width:5.99309;stroke-linecap:round;stroke-miterlimit:4;stroke-dasharray:none"
       id="path8067"
       cx="-10.664053"
       cy="108.32433"
       rx="70.158249"
       ry="69.784073" />
    <ellipse
       style="fill:#666666;fill-opacity:0.433007;stroke:none;stroke-width:5.76501;stroke-linecap:round;stroke-miterlimit:4;stroke-dasharray:none"
       id="path8215"
       cx="75.958"
       cy="114.31117"
       rx="31.805073"
       ry="43.21748" />
    <rect
       style="fill:#666666;fill-opacity:0.433007;stroke:none;stroke-width:5.76501;stroke-linecap:round;stroke-miterlimit:4;stroke-dasharray:none"
       id="rect8319"
       width="67.351921"
       height="22.076462"
       x="101.40205"
       y="98.408638" />
    <path
       style="fill:#666666;fill-opacity:0.433007;stroke:none;stroke-width:5.76501;stroke-linecap:round;stroke-miterlimit:4;stroke-dasharray:none"
       id="path8343"
       sodipodi:type="arc"
       sodipodi:cx="222.65213"
       sodipodi:cy="-14.126874"
       sodipodi:rx="38.540268"
       sodipodi:ry="17.212158"
       sodipodi:start="0"
       sodipodi:end="6.2827801"
       sodipodi:arc-type="slice"
       d="m 261.1924,-14.126874 a 38.540268,17.212158 0 0 1 -38.53637,17.2121581 38.540268,17.212158 0 0 1 -38.54417,-17.2086711 38.540268,17.212158 0 0 1 38.52856,-17.215644 38.540268,17.212158 0 0 1 38.55197,17.205183 l -38.54026,0.007 z"
       transform="rotate(33.119068)" />
    <path
       id="path854-5"
       style="fill:#000000;stroke-width:0.192424"
       d="m -24.648438,-177.12305 c -4.03935,0.11999 -8.094124,0.4346 -12.030997,1.39023 -3.421369,0.66426 -6.764395,1.67086 -10.084536,2.7186 -6.535338,2.23981 -12.60438,5.68011 -18.242842,9.63855 -6.766606,4.86532 -12.49913,11.10233 -16.959472,18.13148 -2.81987,4.40269 -5.45013,8.96233 -7.437246,13.80806 -1.572436,3.79085 -2.280052,7.85501 -3.188901,11.83704 -0.509889,2.8624 -1.147372,5.71303 -1.28916,8.62704 -0.583389,7.41041 -0.124525,15.088751 2.792867,22.01113 0.64711,1.507216 1.320066,3.036303 2.250834,4.386701 0.607864,0.705256 1.966053,0.35103 1.966797,-0.634765 -0.100495,-2.030009 -0.321691,-3.934908 -0.419922,-5.970704 -0.173921,-2.520813 -0.04315,-5.132302 0.279297,-7.667968 0.648566,-6.210364 1.979872,-12.346144 4.102796,-18.209564 2.703064,-8.02247 6.244107,-15.95042 11.899337,-22.35343 3.060788,-3.51892 6.450052,-6.77595 10.084335,-9.64854 6.248162,-4.60092 13.336949,-7.94237 20.604001,-10.58956 5.767364,-1.8446 11.59195,-3.6975 17.645433,-3.96116 7.878243,-0.44095 15.8991507,0.78578 23.530527,2.97014 6.6779643,2.0917 12.657705,5.96871 17.984691,10.43779 3.786826,3.30731 6.617791,7.50143 9.515647,11.56312 1.989025,2.71741 4.494314,5.15768 7.62672,6.50032 4.421122,2.26633 9.674632,2.66166 14.445046,1.35539 2.827624,-0.77075 5.644968,-1.6106 8.55787,-2.00478 5.726618,-0.87719 11.70258,-0.99046 17.148083,1.20037 3.551426,1.4896 6.553805,4.37539 7.871985,8.02914 0.708173,1.86754 1.306793,5.24465 0.811397,12.21231 0.631524,1.45245 1.45356,1.41082 2.82501,1.24844 1.604838,-0.13574 3.113216,-0.78308 4.74964,-0.66454 3.674295,-0.12441 7.338079,-0.52684 11.019251,-0.44622 3.99474,-0.0722 7.99023,-0.0358 11.98363,0.0534 1.5893,-0.0572 3.16755,-0.25163 4.76211,-0.18978 9.20948,-0.0899 18.42219,-0.10121 27.62947,-0.26254 1.00911,-0.10964 1.98039,-0.42596 2.9706,-0.63678 -0.84207,-0.0817 -0.095,-0.35513 0.14844,-0.70898 0.99111,-1.25886 0.54599,-3.10415 -0.5438,-4.15075 -0.98709,-1.11368 -2.53433,-1.69138 -4.00581,-1.42909 -17.19441,0.035 -34.38882,-0.001 -51.583206,-0.0295 -0.618061,-6.10846 -2.472317,-12.31104 -6.443738,-17.10543 -3.658891,-4.48475 -9.166526,-7.14077 -14.811616,-8.05783 -7.358068,-1.20841 -14.957595,-0.0472 -21.87148,2.63392 -2.688161,1.03085 -5.703835,2.01083 -8.554749,1.01977 -2.05536,-0.76561 -3.795112,-2.22892 -5.255917,-3.83613 -1.676352,-2.12705 -3.114314,-4.43227 -4.829345,-6.53201 -3.121035,-4.04184 -6.831251,-7.59214 -10.859053,-10.71999 -5.730933,-4.52783 -12.011649,-8.44935 -18.8723958,-11.01688 -5.2839933,-2.11137 -10.7949269,-3.7711 -16.4844852,-4.27577 -3.794091,-0.4474 -7.614329,-0.72959 -11.437143,-0.6702 z"
       sodipodi:nodetypes="ccccccccccccccccccccccccccccccccccccccccccccccccc" />
    <path
       d="m 73.735928,-128.2271 c -9.1497,-0.21469 -18.291543,0.64818 -27.563137,4.34548 -4.061922,1.6198 -4.210289,1.29432 -3.638959,5.9707 0.525907,4.30459 0.735882,4.52857 2.917422,3.12074 2.91338,-1.88011 7.199303,-3.30945 13.22719,-4.4111 1.185725,-0.2167 2.293588,-0.43645 2.461997,-0.48835 0.595868,-0.18361 4.357376,-0.65312 4.44987,-0.55552 0.12761,0.13464 -1.744767,3.21766 -4.76494,7.01846 -1.375926,1.73158 -7.434839,10.0778 -8.898135,11.80055 -2.668263,3.14141 -7.521251,9.823808 -9.864735,13.583666 -2.43605,3.90838 -4.900114,9.054854 -5.406373,11.292335 -0.249341,1.101947 -0.185251,2.167726 0.151298,2.52336 0.126552,0.133512 0.666941,0.230995 1.281161,0.230995 0.87285,0 1.447071,-0.174638 3.223887,-0.980818 1.189078,-0.539502 2.59845,0.158294 3.863511,0.696878 5.466851,2.327436 8.453171,2.704031 12.789953,2.436069 2.65616,-0.164108 7.321803,-1.255969 11.43914,-3.483237 1.880789,-1.017413 4.113769,-2.687503 4.888015,-3.170944 0.768886,-0.480089 1.883141,-2.107645 2.188707,-3.196704 0.774536,-2.760369 0.298978,-6.32872 -0.840076,-8.342035 0,0 -0.295152,-0.500941 -0.504259,-0.855824 -0.0337,-0.05727 -0.06523,-0.136945 -0.110149,-0.145277 -0.07264,-0.01344 -0.216713,0.153448 -0.333701,0.236374 l -0.750427,0.406003 c -1.887383,1.021146 -5.89648,4.468238 -8.046933,5.498716 -3.676483,1.761733 -8.584668,3.159376 -11.761351,2.505281 -1.115676,-0.229724 -3.252311,-1.263054 -3.261647,-1.339466 -0.0415,-0.339672 8.384325,-12.449872 10.877365,-15.563232 5.073759,-6.33624 11.106578,-15.10836 13.721364,-19.95175 1.983863,-3.67475 2.741138,-5.80324 2.572157,-7.23367 -0.177091,-1.5068 -1.07305,-1.97964 -4.308195,-1.94768 z"
       style="fill:#000000;stroke-width:0.0462582"
       id="path14712"
       sodipodi:nodetypes="csssssssssscssssssccsscssssssccc" />
    <path
       d="m 23.912742,-114.61645 c -0.2837,-0.002 -0.56727,0.002 -0.85059,0.0114 -8.66675,0.39609 -16.7111996,5.66588 -21.2059496,12.98319 -2.63372998,4.234627 -4.26541,9.162297 -4.22093,14.177947 -0.0814,2.86021 0.23411,5.78827 1.47898002,8.39794 1.30969,3.06261 3.81625998,5.69656 7.05176998,6.68641 4.4634596,1.48452 9.3404496,0.65292 13.6291396,-1.01441 3.75161,-1.46915 7.11733,-3.82043 9.88777,-6.73654 2.1968,-2.19238 3.95971,-4.78268 5.3082,-7.57163 0.96539,-1.74848 1.8323,-3.75757 2.37251,-5.77933 0.63411,-4.01161 0.54204,-4.82515 0.20046,-10.719917 -0.1057,-1.34764 -0.79415,-2.55274 -1.37872,-3.74293 -1.96745,-3.56114 -5.71497,-5.97654 -9.72964,-6.49572 -0.84082,-0.13036 -1.6919,-0.19026 -2.543,-0.19638 z m -1.90014,11.05876 c 1.8167,-0.0187 3.22123,1.65545 3.44992,3.37137 0.30245,2.189057 0.006,4.434767 -0.50592,6.571687 -0.97636,3.47399 -2.75633,6.81472 -5.44359,9.26352 -1.80595,1.60868 -4.31096,2.89696 -6.77272,2.18229 -2.03334,-0.7148 -2.9540996,-2.95845 -3.0886996,-4.96351 -0.23873,-3.5929 1.0804696,-7.25735 3.1403796,-10.22677 1.46429,-1.89316 3.53265,-3.192637 5.4808,-4.532537 1.09864,-0.68854 2.26354,-1.45551 3.56258,-1.65882 0.0594,-0.004 0.11864,-0.007 0.17725,-0.007 z"
       style="fill:#000000;stroke-width:0.0509122"
       id="path15296"
       sodipodi:nodetypes="sccccccccccccssccccccccccc" />
    <path
       d="m 86.560324,-117.57118 c 0,0 -1.403205,1.17611 -1.700685,5.08441 -0.265409,3.48684 -0.86817,7.48542 -1.987064,13.184719 -2.24662,11.443253 -2.600689,13.960495 -2.494707,17.735041 0.140504,5.002888 0.640973,5.216861 7.936078,3.397297 5.916927,-1.475811 8.179857,-2.094221 15.266814,-3.304322 5.64174,-0.963344 8.84478,-2.279637 8.84478,-3.634826 0,-0.770632 -1.35522,-1.845447 -2.55307,-2.02508 -1.22906,-0.18431 -7.77486,0.379371 -13.114821,1.129265 -1.876319,0.263495 -4.093719,0.514801 -4.927638,0.558526 l -1.51609,0.0794 -0.08208,-0.861203 c -0.0893,-0.936207 0.288441,-4.815729 0.769581,-7.901468 l 0.302668,-1.940241 1.526282,-0.266029 c 0.83958,-0.146282 2.891296,-0.443947 4.559135,-0.661687 7.184463,-0.937901 9.024423,-1.323555 10.423993,-2.183883 0.6149,-0.37798 0.82117,-0.68485 0.82117,-1.221549 0,-1.91949 -0.71917,-2.09817 -8.08606,-2.01084 -3.127201,0.0377 -6.226033,0.0499 -6.886223,0.0285 l -1.200514,-0.0394 v -4.52113 -4.52182 l 4.48516,-0.17238 c 2.156773,-0.0831 4.974397,-0.27645 6.927627,-0.45604 l 14.86843,-0.12016 0.002,1.13673 c 0.002,1.83543 -0.26347,3.71534 -1.82828,12.950581 -1.07958,6.371594 -1.26802,7.987139 -1.29757,11.118927 -0.0403,4.263011 0.17323,5.048372 1.55206,5.702659 1.0864,0.515525 4.13047,0.400083 7.05385,-0.267386 1.51163,-0.345136 2.9369,-0.30064 6.22324,-1.030019 5.44758,-1.20905 7.94341,-2.308921 13.15878,-4.136211 11.40096,-3.994511 9.57004,-4.823038 2.54675,-2.936211 -9.73587,1.989858 -12.3885,2.053489 -17.01375,2.190219 -1.65556,0.04894 -3.22499,-0.859271 -3.30392,-0.93938 -0.40077,-0.406497 0.45577,-9.048489 0.93924,-9.475929 0.0992,-0.08772 1.43141,-0.345346 2.96026,-0.572776 2.63331,-0.391748 3.9296,-0.5711 8.53532,-1.180155 2.17511,-0.28764 3.12005,-0.583209 3.78344,-1.183569 1.0115,-0.91539 0.20736,-2.35952 -1.53781,-2.76208 -0.50916,-0.1174 -3.65436,-0.21378 -6.99004,-0.21378 h -6.06505 l -0.0692,-4.32975 c -0.042,-2.63905 -0.0254,-3.68903 0.10453,-4.14245 l 19.41711,-1.89104"
       style="fill:#000000;stroke-width:0.0668609"
       id="path17111"
       sodipodi:nodetypes="csccssssscccccccsscccccccccscsssscscsssscscccc" />
    <path
       id="path18724"
       style="fill:#000000;stroke-width:0.0525245"
       d="m 158.29947,-132.56616 c -1.74819,0.0673 -3.80769,0.98174 -4.20324,2.84917 -0.22035,1.32411 0.55686,2.66364 -0.0383,3.95338 -0.005,0.80539 -0.51563,0.74382 -1.12637,0.52188 -1.65032,-0.30944 -3.65042,-0.49742 -5.00923,0.68712 -1.23694,1.14232 -1.66847,2.81085 -2.21603,4.3346 -0.71672,1.8027 -2.74091,3.30589 -4.57087,3.32402 -0.78086,-0.178 -0.42784,0.14258 -0.61424,0.60715 -0.23081,1.56018 -0.65664,2.68578 -0.88603,4.24617 3.5738,0.50128 7.60966,1.37567 11.01545,-0.11783 1.64633,-0.66294 3.05084,-1.75057 4.47123,-2.78671 1.32626,-0.80431 2.85749,-0.18653 4.1307,0.38688 1.11308,0.46532 2.2259,0.93201 3.32269,1.43466 -0.6678,1.74428 -1.1911,3.5784 -1.38235,5.44267 -0.0531,1.02637 5.9e-4,2.34792 0.93907,2.97187 1.03453,0.38028 1.70992,-0.80346 2.21053,-1.51048 1.03179,-1.48955 1.64745,-3.20756 2.4239,-4.83266 2.11277,0.98307 4.14187,2.17649 6.02479,3.55038 -0.75912,2.03047 -1.49381,4.12566 -1.66503,6.29957 -0.12074,0.75761 0.52122,1.604255 1.33255,1.278764 1.75636,-0.746424 2.54855,-2.656434 3.57377,-4.132694 0.2993,-0.21695 0.41702,-1.10637 0.83904,-0.91482 1.62194,1.08597 3.20234,2.25731 4.67474,3.5383 -0.89533,1.739482 -1.92163,3.509159 -2.18827,5.472667 -0.0457,0.963343 1.11482,1.614932 1.87595,0.961144 1.50822,-0.851974 2.67788,-2.14512 3.92718,-3.314636 2.68075,2.677404 5.0964,5.663956 6.95167,8.976719 1.00207,1.851946 1.84464,3.955197 2.06506,5.994493 0.31278,2.27882 -0.44972,5.20802 -2.79448,6.248504 -2.57841,1.160999 -5.44532,0.483974 -8.11863,0.128478 -0.59552,-0.158163 -1.14623,0.53352 -0.69084,1.014013 0.98282,0.842957 2.31224,1.165832 3.47518,1.701635 1.87966,0.897271 3.99015,0.990652 6.0339,1.084682 3.19942,0.108579 6.32816,-1.853071 7.59673,-4.797237 1.11787,-2.607877 1.02964,-5.562169 0.63895,-8.320022 -0.83901,-4.542066 -3.22866,-8.647456 -6.02711,-12.261274 -1.50446,-2.033186 -3.38324,-3.748066 -4.94733,-5.728276 0.34022,-0.58525 0.72875,-1.17312 1.22712,-1.6281 1.57442,-0.22754 3.26815,-0.98853 3.93823,-2.5313 0.90226,-1.68686 0.75951,-4.03124 -0.813,-5.28278 -1.43784,-1.1913 -3.58154,-1.24136 -5.26312,-0.5783 -1.78161,0.71228 -2.68702,2.75757 -2.35069,4.59207 0.18259,0.81132 -0.30838,1.53311 -0.66372,2.21855 -1.93821,-1.39693 -3.84622,-2.84436 -5.64596,-4.41683 0.19734,-0.50771 0.41576,-1.19416 1.09816,-1.09816 2.65326,-0.38311 4.70969,-3.40372 3.71965,-5.98851 -0.65385,-1.94458 -2.84271,-2.94845 -4.79363,-2.6638 -2.55657,0.22152 -4.63796,2.99139 -3.86942,5.50569 0.11957,0.73808 0.67253,1.32359 0.83083,2.03033 -0.30518,0.44531 -0.91555,-0.31789 -1.31721,-0.40679 -1.77602,-1.04056 -3.55503,-2.07913 -5.29191,-3.1839 0.22326,-0.78678 0.18523,-1.81992 1.0991,-2.11877 1.37803,-0.55241 2.58189,-1.69498 2.80671,-3.21674 0.40582,-1.49064 -0.20503,-3.19286 -1.57931,-3.95515 -1.84619,-1.13579 -4.44068,-1.02984 -6.12876,0.34618 -1.18555,1.09148 -1.6445,2.85208 -1.07801,4.37049 0.13334,0.45091 0.35097,0.87945 0.52591,1.30772 -0.17965,0.23166 -0.26804,0.96745 -0.69113,0.66896 -2.06742,-0.95803 -4.05479,-2.10123 -6.2021,-2.88142 0.11124,-0.6127 -0.19508,-1.62319 0.66091,-1.79735 1.64119,-0.48743 3.27721,-1.77294 3.37392,-3.6064 0.2767,-1.16764 -0.15624,-2.48632 -1.24006,-3.08332 -0.99618,-0.66837 -2.20516,-0.95563 -3.39725,-0.89465 z"
       sodipodi:nodetypes="scccccccccccccccccccccccccccccccccccccccccccccccccccccccccccccss" />
    <path
       d="m -5.2404991,-150.85807 c -6.0933699,0.0101 -11.8135099,0.59032 -19.0835899,1.90635 -3.02665,0.54787 -10.79274,2.37203 -12.54652,2.9471 -0.45469,0.1491 -1.90945,0.62069 -3.23236,1.048 -6.58595,2.12732 -9.39331,3.27408 -15.58613,6.36654 -2.98556,1.49088 -4.25307,2.21992 -7.31222,4.20542 -8.83688,5.73546 -14.55733,13.21621 -15.43781,20.18739 -0.39388,3.11857 0.32313,5.73522 2.0438,7.45588 0.93463,0.93463 1.58193,1.16697 1.36736,0.49092 -0.43682,-1.37666 -0.4374,-4.58719 -0.001,-6.4456 1.18098,-5.02945 5.61056,-10.85009 11.62461,-15.27452 3.29206,-2.42191 9.06158,-5.64941 13.24674,-7.41091 0.657,-0.27653 1.65101,-0.70756 2.20916,-0.95808 0.90297,-0.40529 4.09534,-1.6062 6.21048,-2.33629 5.03847,-1.73916 13.06581,-3.68493 18.95336,-4.59403 5.74733,-0.88745 7.09731,-0.98437 13.5660999,-0.96997 6.167701,0.0137 6.417641,0.0293 8.69921101,0.53485 4.31610999,0.95628 5.88090999,1.61354 7.61709999,3.20033 1.36512,1.24764 1.7805,2.25487 1.7477,4.23643 -0.0364,2.20372 -1.05198,4.4159 -3.19308,6.95512 -0.71124,0.84349 -3.94656,3.65011 -5.53816999,4.80436 -3.32456001,2.41099 -11.90785091,6.98443 -17.22220091,9.1767 -7.15874,2.95312 -19.71506,7.42282 -20.01377,7.12411 -0.0559,-0.0559 0.29793,-1.13191 0.78652,-2.39107 0.76156,-1.96266 2.08364,-5.72841 4.72271,-13.45034 0.71941,-2.10501 2.5911,-6.81722 3.43906,-8.6589 1.7771,-3.85964 1.8872,-5.44719 0.4439,-6.39288 -1.08538,-0.71117 -5.27435,-0.21611 -10.1601,1.20096 -1.82187,0.52841 -6.00551,1.95219 -7.31221,2.48821 -3.36818,1.3817 -4.86414,3.03512 -3.75223,4.14703 0.30563,0.30564 0.64115,0.38447 1.63091,0.38447 1.14237,0 1.27477,0.0436 1.5875,0.5209 0.53373,0.81458 0.393,1.85187 -0.66094,4.8674 -0.53634,1.5346 -1.42667,4.21876 -1.97869,5.96501 -0.55202,1.74625 -1.24401,3.91097 -1.53789,4.81056 -3.89448,11.92088 -4.00996,12.25624 -6.9355,20.204459 -1.61679,4.39256 -4.52217,11.724182 -5.34541,13.48858 -0.3161,0.677482 -0.97756,2.129684 -1.47019,3.227195 -0.85378,1.90215 -2.13287,4.461831 -3.37757,6.759793 -0.31529,0.582089 -0.66554,1.361773 -0.77825,1.732193 -1.0598,3.48285 -1.11011,5.082987 -0.21859,6.950995 1.55503,3.25828 5.56712,4.40404 14.37018,4.10363 7.24086,-0.24709 10.50528,-1.57937 12.0127,-4.90254 0.65416,-1.442134 0.59881,-1.534278 -0.92604,-1.534278 -2.6613,0 -4.43597,-1.068946 -5.07876,-3.059245 -0.2329,-0.721029 -0.33069,-1.662271 -0.32969,-3.168282 0.003,-2.992059 0.63806,-5.961842 2.5988,-12.148613 0.50312,-1.5875 1.16543,-3.709019 1.47227,-4.714441 0.30684,-1.005408 1.13965,-3.559995 1.85053,-5.676654 l 1.29243,-3.848346 1.05833,-0.513146 c 0.58208,-0.282321 1.96763,-0.878604 3.07888,-1.324983 1.11125,-0.44637 2.58275,-1.068527 3.27008,-1.382347 0.68734,-0.31383 2.11807,-0.94154 3.17914,-1.39475 1.06107,-0.45321 2.6938,-1.18019 3.6282,-1.61592 1.91672,-0.89382 2.36515,-0.95447 3.05563,-0.41134 0.97935,0.77036 1.1684,1.68248 1.1374,5.488035 -0.0155,1.905 -0.11878,4.242533 -0.22945,5.195033 -0.40798,3.511219 -0.78853,6.575692 -0.96738,7.793323 -0.88812,6.04673 -1.6554,11.045995 -2.0376,13.277225 -1.22736,7.165128 -1.47533,9.152829 -1.38183,11.074779 0.0638,1.31133 0.20055,1.97355 0.57258,2.77967 1.15942,2.51233 4.22888,4.265011 8.61549,4.919091 h 5.3e-4 c 2.82442,0.42098 6.45796,-0.0724 9.3265599,-1.266591 4.266251,-1.77605 7.74869101,-5.55433 8.13646101,-8.82841 l 0.1142,-0.967382 -1.03611001,0.395324 c -1.55112,0.591268 -4.447951,0.711798 -5.778981,0.240811 -1.89824,-0.671719 -3.0797099,-2.37249 -3.7258699,-5.36453 -0.81941,-3.7943 -0.52907,-13.654674 0.71934,-24.437784 0.1347799,-1.164159 0.2449399,-3.675536 0.2449399,-5.580536 0,-3.195318 -0.0355,-3.550858 -0.4552599,-4.591968 -0.78486,-1.94649 -2.84217,-3.49538 -4.96043,-3.73414 -0.46106,-0.052 -0.83819,-0.15363 -0.83819,-0.22583 0,-0.13376 0.4037,-0.3225 4.13722,-1.9358 2.0125999,-0.86967 3.1451799,-1.39744 8.4490909,-3.93619 4.05327001,-1.94012 10.48685,-5.6755 13.4870401,-7.83105 0.84667,-0.60831 2.05731,-1.47841 2.69027,-1.93321 1.45662,-1.04663 4.63077,-4.08382 5.64462,-5.40122 2.47191,-3.21199 3.67155,-6.33044 3.68505,-9.57977 0.0215,-5.16436 -3.5087,-8.5614 -11.15746,-10.73785 -4.1213801,-1.17273 -7.0443301,-1.54024 -13.4865201,-1.69447 -0.89132,-0.0214 -1.76967,-0.0314 -2.640151,-0.03 z"
       style="fill:#000000;stroke-width:0.0509122"
       id="path19482"
       sodipodi:nodetypes="ssssssssccsssssscscssssssssssssssscsssssssssscsssccsssssssssssccscccsssssssssssssssss" />
    <g
       id="g20471"
       style="fill:#2c3e50;fill-opacity:1">
      <path
         id="path854-5-1"
         style="fill:#2c3e50;fill-opacity:1;stroke-width:0.192424"
         d="m 379.30664,-137.59375 c -4.85514,0.0924 -9.6983,0.69748 -14.40847,1.88896 -5.85562,1.37653 -11.61178,3.29689 -16.9316,6.13556 -6.71742,3.56061 -13.06435,7.94443 -18.32472,13.46709 -4.57491,4.71499 -8.33128,10.15395 -11.56744,15.8545 -2.80567,4.821062 -5.26647,9.918622 -6.47943,15.393805 -0.93255,3.913597 -1.77428,7.859554 -2.32217,11.847233 -0.62414,5.504205 -0.70296,11.114665 0.21165,16.590978 0.78841,4.587008 2.30202,9.098843 4.76554,13.060155 0.96752,1.208467 3.18198,1.003649 3.73526,-0.49953 0.35922,-1.220317 -0.0401,-2.507568 -0.0558,-3.750755 -0.30168,-3.531923 -0.42287,-7.070738 0.068,-10.590358 0.69165,-6.621335 2.24844,-13.237994 4.61061,-19.530222 2.61302,-7.433098 6.08384,-14.791171 11.4373,-20.72326 4.28622,-4.843636 9.10312,-9.307966 14.73369,-12.549346 7.61621,-4.52367 15.98381,-7.69862 24.57898,-9.78428 5.79281,-1.4399 11.80488,-1.51306 17.69362,-0.91503 4.69253,0.50324 9.32431,1.42854 13.85734,2.79904 6.72563,2.20747 12.74363,6.19086 18.02478,10.8413 3.56492,3.34043 6.21286,7.51594 9.15423,11.447872 2.20891,2.910052 5.19605,5.252256 8.60055,6.56986 4.91393,2.131537 10.58328,2.07417 15.62467,0.408431 5.7509,-1.621665 11.7491,-2.562715 17.70366,-1.842233 3.98063,0.500081 8.07668,1.953122 10.73345,5.100833 1.85002,2.130588 2.84864,4.868127 2.99971,7.609397 0.25904,2.74625 0.12937,5.481281 -0.047,8.203203 0.41041,1.351721 1.77897,2.412313 3.2233,2.178105 2.0433,-0.103629 4.00963,-0.888787 6.07238,-0.762263 4.15836,-0.226622 8.31718,-0.495447 12.48389,-0.446019 3.70894,-0.06689 7.42159,0.125691 11.12792,0.0079 4.08068,-0.222809 8.28399,-0.108472 12.41392,-0.185797 6.39436,-0.06864 12.79624,-0.03707 19.18503,-0.252026 1.98661,-0.310852 3.89425,-0.958203 5.75333,-1.707867 -0.6254,-0.202275 -1.22572,-0.493429 -1.86914,-0.632812 1.05124,-2.136424 -0.24359,-4.716387 -2.16406,-5.861328 -1.31924,-0.880154 -2.9621,-0.911829 -4.48438,-0.780787 -16.59115,0.02713 -33.1823,-0.0039 -49.77343,-0.02976 -0.79321,-6.627127 -3.13963,-13.337133 -7.88891,-18.176745 -4.69459,-4.763282 -11.40554,-7.073562 -17.98953,-7.394052 -6.69022,-0.40034 -13.39304,1.01212 -19.58836,3.49072 -2.29755,0.83045 -5.17323,1.545499 -7.54297,0.30859 -2.82576,-1.34909 -4.74566,-3.92784 -6.4426,-6.46237 -3.48601,-4.97229 -7.61597,-9.50316 -12.38677,-13.27031 -6.50032,-5.32646 -13.77512,-9.79238 -21.7143,-12.61703 -5.42323,-2.1023 -11.15825,-3.51897 -16.94727,-3.94674 -3.27438,-0.34488 -6.57028,-0.53372 -9.86453,-0.49261 z"
         inkscape:export-filename="D:\Pictures\Angie Web Studio\TheeRozee\assets\img\Logo-color1.png"
         inkscape:export-xdpi="300"
         inkscape:export-ydpi="300" />
      <path
         id="path14712-5"
         style="fill:#2c3e50;fill-opacity:1;stroke-width:0.0442379"
         d="m 473.34465,-83.633259 c -8.67782,0.03621 -17.40664,1.456188 -25.4108,4.699224 -1.31529,0.421492 -2.8293,1.233842 -2.91667,2.710763 -0.17575,1.884038 0.27439,3.754058 0.5397,5.611292 0.10887,1.025946 0.80496,2.331248 2.0798,2.180748 1.35426,-0.140304 2.30649,-1.209998 3.53778,-1.662425 4.56446,-2.165915 9.69916,-2.887596 14.634,-3.793826 0.42107,-0.0048 1.62014,-0.448334 0.95238,0.219953 -2.35248,3.321653 -5.07914,6.390997 -7.53931,9.667416 -2.30221,3.001566 -4.74317,5.903167 -7.16106,8.8195 -4.58532,5.729777 -9.06403,11.673611 -11.88074,18.401447 -0.58847,1.503966 -1.3197,3.231824 -0.63943,4.816157 0.40582,0.995911 1.72964,1.061812 2.69629,1.018347 1.28527,-0.04284 2.36321,-0.775839 3.576,-1.055356 1.03893,-0.113368 1.92615,0.570995 2.89914,0.831302 3.16861,1.281515 6.52749,2.266767 9.99967,2.301757 5.52353,0.112613 11.0236,-1.469855 15.7279,-4.177664 1.36321,-0.829871 2.74501,-1.651148 4.00672,-2.614102 1.84594,-1.563924 2.60416,-3.973081 2.52413,-6.266827 -0.0102,-2.337979 -0.62517,-4.780004 -2.15639,-6.6408 -0.6711,-0.539627 -1.4542,0.03868 -2.02732,0.401781 -3.52182,1.859677 -6.33357,4.872378 -10.24354,6.074465 -2.2993,0.835109 -4.75831,1.481372 -7.13955,1.503181 -1.22916,0.06442 -2.42456,-0.307891 -3.51887,-0.807767 3.94414,-5.684654 8.12613,-11.221188 12.55122,-16.577656 3.98183,-5.02065 7.80056,-10.180367 11.055,-15.658428 1.1343,-2.024247 2.33409,-4.115302 2.64927,-6.418632 0.18505,-1.342538 -0.51874,-2.928253 -2.02412,-3.245462 -1.9555,-0.526266 -4.01398,-0.244143 -6.01681,-0.340171 -0.25146,5.94e-4 -0.50293,0.0012 -0.75439,0.0017 z"
         inkscape:export-filename="D:\Pictures\Angie Web Studio\TheeRozee\assets\img\Logo-color1.png"
         inkscape:export-xdpi="300"
         inkscape:export-ydpi="300" />
      <path
         id="path15296-9"
         style="fill:#2c3e50;fill-opacity:1;stroke-width:0.0509122"
         d="m 427.00391,-75.076172 c -9.36442,0.430486 -18.04421,6.279575 -22.60891,14.365537 -2.73864,4.641441 -4.11512,10.070121 -3.86416,15.457501 0.0817,4.784962 1.9401,9.792435 5.85236,12.740827 3.65577,2.66221 8.4885,2.984253 12.80675,2.159001 7.15698,-1.348524 13.56551,-5.702068 17.85235,-11.537815 1.8011,-2.482438 3.23799,-5.225549 4.41114,-8.055403 1.26292,-2.864651 1.42439,-6.051051 1.37181,-9.138905 -0.12232,-1.889714 -0.0665,-3.747908 -0.43356,-5.620941 -0.45208,-1.737841 -1.33754,-3.35682 -2.41311,-4.787234 -2.53852,-3.328273 -6.60377,-5.319304 -10.76013,-5.534194 -0.7361,-0.06019 -1.47637,-0.06907 -2.21454,-0.04837 z m -0.79493,13.177734 c 1.6649,0.269932 2.36678,2.156217 2.25697,3.659561 0.10254,4.96505 -1.92363,9.954884 -5.44447,13.453721 -1.50619,1.368579 -3.52344,2.659055 -5.64843,2.267578 -1.7688,-0.344903 -2.52127,-2.289684 -2.68619,-3.890386 -0.25946,-3.290574 0.86124,-6.596529 2.6506,-9.327677 1.54171,-2.190446 3.88404,-3.63136 6.10004,-5.055375 0.84803,-0.501959 1.74681,-1.121619 2.77148,-1.107422 z"
         inkscape:export-filename="D:\Pictures\Angie Web Studio\TheeRozee\assets\img\Logo-color1.png"
         inkscape:export-xdpi="300"
         inkscape:export-ydpi="300" />
      <path
         id="path17111-6"
         style="fill:#2c3e50;fill-opacity:1;stroke-width:0.0668609"
         d="m 489.95117,-77.90625 c -1.93149,1.914716 -2.102,4.798012 -2.31367,7.351353 -0.86697,8.733618 -3.33039,17.203305 -4.2632,25.930351 -0.15613,2.294429 -0.22431,4.636197 0.22336,6.899937 0.42081,1.273497 1.86341,1.805496 3.10579,1.659194 2.92391,-0.01991 5.84744,-0.06559 8.77116,-0.0029 5.83113,-0.08644 11.64307,-0.892985 17.31836,-2.212891 1.68842,-0.492676 3.47149,-1.01206 4.82803,-2.176665 0.86531,-0.782887 1.01834,-2.195762 0.22525,-3.084976 -1.12235,-1.551372 -3.23972,-1.871922 -5.01004,-1.526218 -4.41148,0.38663 -8.77424,1.181803 -13.21902,0.96364 -1.50952,-0.151153 -3.00167,-0.571864 -4.32813,-1.316406 -0.11332,-2.69867 0.39396,-5.375562 0.73203,-8.043308 0.0864,-0.605154 0.0237,-1.357055 0.86207,-1.222209 4.51029,-0.785244 9.12022,-1.041478 13.56031,-2.194284 1.31329,-0.390241 2.94567,-1.074552 3.18348,-2.598793 0.25976,-1.359584 -0.5874,-2.951877 -2.05575,-3.097775 -2.73361,-0.554006 -5.54099,-0.232719 -8.30863,-0.294829 -1.92795,0.0164 -3.85619,0.04021 -5.78405,0.0039 0,-2.330078 0,-4.660156 0,-6.990234 3.80213,-0.09267 7.59316,-0.406089 11.38904,-0.598659 4.25638,-0.03482 8.51277,-0.06964 12.76916,-0.104466 -0.0395,2.970812 -0.72073,5.980371 -1.14665,8.964185 -0.98878,6.195871 -2.4559,12.440875 -1.8375,18.753572 -0.0323,1.7646 1.47875,3.267269 3.20084,3.411334 3.35784,0.410988 6.63494,-0.682823 9.94737,-1.017763 6.81211,-1.060364 13.22925,-3.684716 19.67872,-6.009784 1.63971,-0.669586 3.34147,-1.300689 4.79589,-2.322247 0.73131,-0.544044 0.72387,-1.909368 -0.24615,-2.171391 -1.51563,-0.425087 -3.06832,0.174405 -4.55971,0.43953 -5.89941,1.34709 -11.91227,2.483073 -18.0101,2.528849 -0.92465,0.0855 -1.85236,-0.119449 -2.68209,-0.527457 -0.0104,-2.670079 0.30543,-5.358334 0.78321,-7.96875 4.21813,-0.704138 8.48517,-1.146292 12.70489,-1.858275 1.42011,-0.267351 3.11317,-1.085429 3.24433,-2.713991 0.0268,-1.933836 -2.02675,-3.138492 -3.77987,-3.089218 -3.75246,-0.195319 -7.51123,-0.129147 -11.26701,-0.14125 -0.0163,-2.14764 -0.11574,-4.29597 -0.0391,-6.44336 6.22001,-0.606473 12.44032,-1.210125 18.66015,-1.818359 0.51086,-0.341591 1.58589,-0.405752 1.4701,-1.215004 -0.26836,-0.616949 -1.08876,-0.650155 -1.65564,-0.855309 -1.57831,-0.178788 -3.17392,-0.169159 -4.75857,-0.301686 -18.67425,-1.048767 -37.34832,-2.100817 -56.02268,-3.147532 -0.0553,0.05339 -0.11068,0.106771 -0.16602,0.160156 z"
         inkscape:export-filename="D:\Pictures\Angie Web Studio\TheeRozee\assets\img\Logo-color1.png"
         inkscape:export-xdpi="300"
         inkscape:export-ydpi="300" />
      <path
         id="path18724-2"
         style="fill:#2c3e50;fill-opacity:1;stroke-width:0.0525245"
         d="m 564.70363,-92.694901 c -2.12338,0.02208 -4.55758,1.352408 -4.78687,3.652447 0.002,1.269164 0.44906,2.552534 0.0193,3.804584 -2.02631,-0.5038 -4.51147,-0.707429 -6.14897,0.848623 -1.62198,1.548149 -1.64852,4.036111 -3.04477,5.721904 -0.92778,1.069813 -2.35034,1.77841 -3.78283,1.603301 -0.81016,0.445518 -0.47118,1.561129 -0.80453,2.294309 -0.28221,1.205317 -0.54597,2.344512 -0.74234,3.570925 3.53781,0.464976 7.10853,1.334698 10.63355,0.333449 2.32244,-0.59395 4.10059,-2.119934 6.07543,-3.390089 1.83399,-0.501554 3.45606,0.78065 5.10068,1.348182 0.65429,0.07679 1.17678,0.777494 0.77017,1.384072 -0.64442,2.127432 -1.37352,4.472559 -0.61108,6.666183 0.3767,0.939916 1.61169,1.554659 2.4707,0.824219 1.23838,-0.910369 1.83998,-2.410255 2.56387,-3.715572 0.34534,-0.729653 0.66871,-1.469408 1.00254,-2.20435 1.7806,0.887857 3.49802,1.896566 5.1289,3.037109 -0.74722,2.22165 -1.63866,4.396537 -1.51171,6.798828 0.23914,1.101619 1.73881,1.567126 2.56105,0.791175 1.73765,-1.077152 2.52677,-3.065581 3.67918,-4.666175 1.31596,1.049947 2.73378,1.969806 3.99023,3.09375 -0.87953,1.860921 -2.14067,3.763002 -1.97267,5.904788 0.34857,1.178653 2.0506,1.57493 2.88735,0.668842 1.265,-0.764482 2.28789,-1.847856 3.36462,-2.845114 3.48251,3.670689 6.81074,7.77896 8.21299,12.730004 0.59517,2.229903 0.52838,4.995399 -1.29504,6.651528 -1.9073,1.561494 -4.54872,1.271499 -6.82444,0.981538 -0.94698,-0.10065 -2.00089,-0.515813 -2.90601,-0.08377 -0.68294,0.538106 -0.54263,1.744968 0.30405,2.034247 1.58128,0.96257 3.35108,1.598115 5.11647,2.124895 1.9779,0.461883 4.2644,0.632705 6.36073,0.301795 3.60009,-0.765411 6.46008,-4.017047 6.79611,-7.677739 0.83563,-5.407318 -1.12452,-10.845723 -4.04905,-15.331645 -1.89684,-2.943557 -4.25297,-5.575424 -6.61815,-8.129287 -0.31604,-0.868207 0.58192,-1.620726 1.39496,-1.617797 2.29453,-0.527733 4.04048,-2.74196 3.95132,-5.106028 0.003,-1.935606 -1.30128,-3.838664 -3.22562,-4.295899 -2.38313,-0.76474 -5.49551,0.109258 -6.4898,2.570505 -0.5196,1.232228 -0.42334,2.596355 -0.25782,3.890625 -0.84055,-0.04293 -1.52015,-0.505876 -2.12109,-1.052735 -1.13679,-0.817672 -2.24167,-1.688412 -3.1875,-2.726562 1.50767,-0.225399 2.99809,-0.883548 3.91211,-2.148438 1.39158,-1.700678 1.58063,-4.383035 0.0775,-6.076215 -1.93956,-2.241874 -5.86244,-2.27184 -7.77638,0.02824 -1.23004,1.324178 -1.53152,3.273049 -1.06905,4.982297 0.30107,0.875188 -0.70211,-0.139734 -1.07834,-0.246571 -1.21651,-0.702551 -2.4149,-1.433751 -3.60881,-2.174079 -0.0664,-0.829536 0.53611,-1.507566 1.31648,-1.694045 2.46959,-1.194374 3.53046,-4.830459 1.65422,-6.973923 -1.72561,-1.90266 -4.85413,-2.186735 -7.02997,-0.92687 -1.72557,0.988162 -2.57716,3.136944 -2.06768,5.049916 0.0277,0.426258 0.61375,1.531023 0.25593,1.494058 -1.91187,-0.928382 -3.80292,-1.903312 -5.77546,-2.699136 0.36634,-0.588755 0.9056,-1.001938 1.58398,-1.15039 1.86215,-0.866118 3.1458,-2.938073 2.79713,-5.008131 -0.25482,-1.672934 -1.81609,-2.737395 -3.37228,-3.066727 -0.5943,-0.147441 -1.21183,-0.20006 -1.82329,-0.179048 z"
         inkscape:export-filename="D:\Pictures\Angie Web Studio\TheeRozee\assets\img\Logo-color1.png"
         inkscape:export-xdpi="300"
         inkscape:export-ydpi="300" />
      <path
         id="path19482-0"
         style="fill:#2c3e50;fill-opacity:1;stroke-width:0.0509122"
         d="m 396.43555,-111.29883 c -9.96984,0.29175 -19.83506,2.16474 -29.42824,4.81744 -5.4838,1.69985 -10.95923,3.50724 -16.13232,6.024 -4.81812,2.27591 -9.53647,4.825978 -13.76608,8.088932 -4.93635,3.796744 -9.37232,8.590478 -11.60585,14.490151 -1.14918,3.187768 -1.71387,6.871929 -0.31751,10.075573 0.69135,1.512653 1.82532,2.986094 3.41992,3.583984 0.97957,0.19327 1.75977,-0.972698 1.32662,-1.836444 -0.658,-3.149213 -0.14406,-6.49649 1.35666,-9.336038 1.90212,-3.795011 4.92029,-7.046808 8.08234,-9.725956 4.3152,-3.483736 9.2116,-6.112805 14.22637,-8.435035 0.73725,-0.33435 5.92284,-2.621519 6.66817,-2.937599 -0.70134,1.706929 -3.57727,10.662262 -3.99513,12.103419 -3.54034,10.634981 -6.76567,21.370411 -10.81537,31.831835 -2.76299,7.441152 -5.80029,14.796391 -9.55549,21.79824 -1.05886,2.079821 -1.66013,4.429573 -1.65159,6.766178 0.14593,2.950107 2.33615,5.613519 5.17317,6.40013 3.64001,1.213323 7.54457,1.049952 11.32802,0.957692 3.34152,-0.148048 6.88553,-0.417367 9.79142,-2.237546 1.64898,-1.130994 2.95051,-2.941381 3.21027,-4.940827 -0.0566,-1.132169 -1.36842,-1.439424 -2.29659,-1.349077 -1.69739,0.102105 -3.80525,-0.64195 -4.18286,-2.500378 -0.65842,-3.292425 0.0927,-6.665266 0.92146,-9.858026 1.16654,-4.091096 2.48163,-8.145968 3.77318,-12.197788 0.67838,-2.082938 1.38594,-4.156334 2.07685,-6.235202 4.06664,-1.86652 8.26117,-3.488739 12.30859,-5.36914 1.09908,-0.44049 2.09928,-1.050944 3.25391,-1.298829 1.02309,0.495921 0.78963,1.859518 0.89277,2.800078 0.24065,5.337485 -0.6141,10.609027 -1.3216,15.890109 -0.89527,6.341452 -1.97617,12.656277 -2.96653,18.981362 -0.24118,2.154482 -0.54698,4.388466 -0.0226,6.523764 0.60401,2.392894 2.5695,4.156807 4.74283,5.162675 5.65857,2.652005 12.64138,1.980269 17.8472,-1.409049 2.95,-1.990758 5.60982,-4.979183 5.98614,-8.654017 0.0714,-0.61092 0.39093,-1.628436 -0.49609,-1.798828 -0.87152,0.01785 -1.5909,0.662731 -2.45703,0.783203 -1.64647,0.383007 -3.48439,0.539824 -5.06836,-0.146484 -1.87173,-1.13124 -2.40819,-3.499861 -2.67228,-5.471768 -0.45921,-3.681321 -0.2414,-7.518007 -0.10306,-11.25795 0.20569,-4.515469 0.76554,-9.058355 1.13825,-13.584519 0.0861,-2.6339 0.29256,-5.304731 -0.1129,-7.917343 -0.53088,-2.11217 -2.14287,-3.8756 -4.12306,-4.741076 9.31911,-4.066259 12.21462,-5.829807 19.9678,-12.751981 3.25338,-2.894669 6.21449,-7.95779 7.93169,-11.847663 1.60889,-3.515123 2.04776,-7.894295 -0.0221,-11.318982 -2.10922,-3.35492 -5.91413,-5.07298 -9.5573,-6.2237 -4.57223,-1.49466 -7.81229,-1.61405 -12.59957,-1.68016 -1.82824,-0.054 -0.15412,-0.0174 -0.15412,-0.0174 z m -3.07032,8.69727 c 2.71882,0.0719 0.12074,-0.0921 2.82813,0.20508 2.07507,0.31121 2.56017,0.53282 4.60391,1.25325 1.58103,0.70359 3.26362,1.768585 3.84882,3.481693 0.26286,0.879317 0.22146,1.98599 0.0514,2.772187 -0.69926,3.265105 -5.35053,8.92374 -7.80972,10.936339 -9.58062,7.728997 -12.41681,8.704016 -24.29542,13.460154 -1.37998,0.483917 -2.76514,0.952918 -4.16267,1.383482 2.27764,-6.045397 4.17774,-12.242505 6.5118,-18.238692 0.96569,-2.54225 2.21527,-4.976093 3.06437,-7.560136 1.99131,-5.127257 2.84499,-7.103037 10.65039,-7.583987 1.52093,-0.0706 3.14866,-0.10718 4.70898,-0.10937 z"
         sodipodi:nodetypes="sccccccccccccccccccccccccccccccccccccccccccccccssccccccccccssc"
         inkscape:export-filename="D:\Pictures\Angie Web Studio\TheeRozee\assets\img\Logo-color1.png"
         inkscape:export-xdpi="300"
         inkscape:export-ydpi="300" />
    </g>
  </g>
</svg>
